<svg height='100px' width='100px'  fill="#000000" xmlns="http://www.w3.org/2000/svg" viewBox="0 0 32 32" x="0px" y="0px"><title>Trolley</title><g><path d="M29,1H24a1,1,0,0,0-1,1V22H3a1,1,0,0,0,0,2H24a1,1,0,0,0,1-1V3h4a1,1,0,0,0,0-2Z"></path><path d="M5,20H20a1,1,0,0,0,1-1V5a1,1,0,0,0-1-1H5A1,1,0,0,0,4,5V19A1,1,0,0,0,5,20ZM6,6H19V18H6Z"></path><path d="M6,25a3,3,0,1,0,3,3A3,3,0,0,0,6,25Zm0,4a1,1,0,1,1,1-1A1,1,0,0,1,6,29Z"></path><path d="M20,25a3,3,0,1,0,3,3A3,3,0,0,0,20,25Zm0,4a1,1,0,1,1,1-1A1,1,0,0,1,20,29Z"></path></g></svg>