<svg height='100px' width='100px'  fill="#000000" xmlns="http://www.w3.org/2000/svg" data-name="Layer 1" viewBox="0 0 32 32" x="0px" y="0px"><title>ui interface user avatar</title><path d="M21.1788,15.0864a8,8,0,1,0-10.3576,0A9.0072,9.0072,0,0,0,3,24v4a3.0033,3.0033,0,0,0,3,3H26a3.0033,3.0033,0,0,0,3-3V24A9.0072,9.0072,0,0,0,21.1788,15.0864ZM10,9a6,6,0,1,1,6,6A6.0066,6.0066,0,0,1,10,9ZM27,28a1.0013,1.0013,0,0,1-1,1H6a1.0013,1.0013,0,0,1-1-1V24a7.0078,7.0078,0,0,1,7-7h8a7.0078,7.0078,0,0,1,7,7Z"></path></svg>